# xmcd CD database file
#
# Track frame offsets:
#	182
#	13340
#	23575
#	35415
#	51997
#	64210
#	76500
#	95990
#	106145
#	116017
#	127900
#	138915
#	152172
#	165007
#
# Disc length: 2376 seconds
#
# Revision: 0
# Processed by: cddbd v1.4PL0 Copyright (c) Steve Scherf et al.
# Submitted via: Feurio! 1.66 - http://www.feurio.com
#
DISCID=a909460e
DTITLE=Various Artist - Soul  Classics , CD 1 of 2
DYEAR=1900
DGENRE=blues
TTITLE0=Sam and Davie - Soul Man
TTITLE1=Aretha Franklin - Think
TTITLE2=Matha Revves and the Vandellas - Dancing in the Street
TTITLE3=Solomon Burke - Hold on I'm coming
TTITLE4=Ike and Tina Turner - We need Understanding
TTITLE5=Otis Redding - Satisfaction
TTITLE6=James Brown - Sex Machine
TTITLE7=Ike and Tina Turner - Shake a Tailfeather
TTITLE8=Wilson Picket - I'm gonna Love You
TTITLE9=Otis Redding - Shake
TTITLE10=Aretha Franklin - Respect
TTITLE11=Fontella Bass - Rescue Me
TTITLE12=Lee Dorsey - Working in the Coalmine
TTITLE13=Eddie Floyd  - Knock on wood
EXTD=
EXTT0=
EXTT1=
EXTT2=
EXTT3=
EXTT4=
EXTT5=
EXTT6=
EXTT7=
EXTT8=
EXTT9=
EXTT10=
EXTT11=
EXTT12=
EXTT13=
PLAYORDER=
